<svg xmlns="http://www.w3.org/2000/svg" width="180" height="180" viewBox="0 0 180 180">
  <title>大きな星をぎゅっと抱えて空をすべる、金色の旅の相棒</title>
  <defs>
    <linearGradient id="feather-gold" x1="0" y1="0" x2="0.25" y2="1">
      <stop stop-color="#FFD17A" />
      <stop offset=".48" stop-color="#F3B452" />
      <stop offset="1" stop-color="#E99A43" />
    </linearGradient>
    <linearGradient id="face-cream" x1="0" y1="0" x2="0" y2="1">
      <stop stop-color="#FFFAE9" />
      <stop offset="1" stop-color="#FFEDC7" />
    </linearGradient>
    <linearGradient id="scarf-blue" x1="0" y1="0" x2="1" y2="1">
      <stop stop-color="#8586DC" />
      <stop offset="1" stop-color="#5B58AD" />
    </linearGradient>
    <linearGradient id="eye-brown" x1="0" y1="0" x2="0" y2="1">
      <stop stop-color="#49313B" />
      <stop offset="1" stop-color="#744D46" />
    </linearGradient>
  </defs>
  <g>
    <path d="M31 133q-12 0-20 8m21 0-15 10m29-1-13 12" fill="none" stroke="#B4AADF" stroke-width="4" stroke-linecap="round" />
    <g stroke="#593D45" stroke-width="2.7" stroke-linecap="round" stroke-linejoin="round">
      <path d="M68 82c-13 14-14 31-1 42 10 8 33 9 45-1 11-10 8-30-3-42Z" fill="url(#feather-gold)" />
      <path d="M76 96q-10 17 4 25c12 7 28-6 18-23Z" fill="url(#face-cream)" stroke="none" />
      <path d="M113 103q15-8 18-3 1 4-7 8 9 0 7 4l-17 6" fill="#E8A04D" />
    </g>
  </g>
  <g transform="translate(26 -1) scale(.94)">
    <g id="buddy-head">
      <path d="M48 23c-7-3-9-9-5-13 5-5 14-2 14 4 0 4-4 6-8 3 1 6 12 3 17 3 23-2 40 14 40 34 0 21-18 33-41 33-24 1-44-13-43-34 0-16 10-26 26-30Z" fill="url(#feather-gold)" stroke="#593D45" stroke-width="2.8" stroke-linejoin="round" />
      <path d="M32 41c6-10 18-12 27-5l5 4 5-4c9-7 22-5 27 6 7 15-2 32-17 37-10 4-21 4-31 0-16-5-25-24-16-38Z" fill="url(#face-cream)" />
      <path d="M68 26c11-1 20 5 25 12" fill="none" stroke="#FFE5AE" stroke-width="3.5" stroke-linecap="round" opacity=".8" />
      <ellipse cx="36.5" cy="65" rx="7.2" ry="4.4" fill="#EFA184" opacity=".7" />
      <ellipse cx="92" cy="65" rx="7.2" ry="4.4" fill="#EFA184" opacity=".7" />
      <path d="M40 39q6-3 12-1m23 0q6-2 12 1" fill="none" stroke="#A57953" stroke-width="1.8" stroke-linecap="round" />
      <g fill="url(#eye-brown)">
        <ellipse cx="47" cy="51.5" rx="6.3" ry="8.6" />
        <ellipse cx="81" cy="51.5" rx="6.3" ry="8.6" />
      </g>
      <g fill="#FFFFFF">
        <circle cx="45" cy="48.5" r="2.15" />
        <circle cx="49.4" cy="54.9" r="1.15" />
        <circle cx="79" cy="48.5" r="2.15" />
        <circle cx="83.4" cy="54.9" r="1.15" />
      </g>
      <path d="M59 62q5-4 10 0c2 2-1 4-4 6h-2c-3-2-6-4-4-6Z" fill="#EE9775" stroke="#A65F4F" stroke-width="1.4" stroke-linejoin="round" />
      <path d="M62 62q2-1 4 0" fill="none" stroke="#FFD1A9" stroke-width="1.2" stroke-linecap="round" />
      <path d="M56 71q8 2 16-1c-1 9-15 11-16 1Z" fill="#67414A" />
      <path d="M61 76q4-2 7-1" fill="none" stroke="#F5AD97" stroke-width="2.5" stroke-linecap="round" />
    </g>
    <g id="companion-scarf" stroke="#49477F" stroke-width="2" stroke-linejoin="round">
      <path d="M35 81c15 8 36 10 56 1l-3 12c-15 7-35 6-49-1Z" fill="url(#scarf-blue)" />
      <path d="M43 87c11 6 29 7 39 3" fill="none" stroke="#BCBEF2" stroke-width="2.2" stroke-linecap="round" />
      <path d="M43 92c-6 5-13 5-20 4l5 7-3 6c12 2 21-4 30-15Z" fill="url(#scarf-blue)" />
      <path d="m29 100 4 6" stroke="#CBCDF6" stroke-width="2" />
      <path d="M42 87c3-3 9-2 12 1l-1 8c-4 3-8 1-11-2Z" fill="#8182D8" />
      <path d="m47 89 2 4" stroke="#CDCEF7" stroke-width="1.8" stroke-linecap="round" />
    </g>
  </g>
  <g>
    <path d="m93 87 18 26 33 2-22 25 7 31-34-14-28 16 1-33-23-23 33-5Z" fill="#FFD775" stroke="#A86D48" stroke-width="3.5" stroke-linejoin="round" />
    <path d="m94 96 9 19-15-3Z" fill="#FFF3C6" />
    <path d="m54 121 18 18-1 26 23-15 28 12-6-24 18-17-29-1-11-24 2 42Z" fill="#F1B754" opacity=".65" />
    <path d="m91 141 3 10 10 3-10 3-3 10-3-10-10-3 10-3Z" fill="#FFF1B7" />
    <g stroke="#593D45" stroke-width="2.8" stroke-linecap="round" stroke-linejoin="round">
      <path d="M62 94c-8 1-12 8-9 17l9 10c6 4 11-1 8-6l-5-7c6 5 11 2 8-3Z" fill="url(#feather-gold)" />
      <path d="M117 94c9 1 14 8 10 17l-8 9c-6 5-11 1-9-4l5-8c-6 5-11 2-8-3Z" fill="url(#feather-gold)" />
      <path d="m59 106 5 7m57-7-5 6" fill="none" stroke="#CB843E" stroke-width="1.8" />
    </g>
    <path d="m151 82 3 6 7 2-7 3-3 6-2-6-7-3 7-2m-114-41 2 4 5 2-5 1-2 5-1-5-5-1 5-2" fill="#E9BA58" />
  </g>
</svg>
