<svg xmlns="http://www.w3.org/2000/svg" width="128" height="144" viewBox="0 0 128 144">
  <title>正解を喜んで羽を広げる旅の相棒</title>
  <ellipse cx="66" cy="132" rx="31" ry="5" fill="#536f5625"/>
  <path d="M49 119v10l-11 3m40-13v10l11 3" stroke="#6a6048" stroke-width="5" stroke-linecap="round" fill="none"/>
  <path d="m90 92 18 16-20 4" fill="#446f63"/>
  <path d="M42 67c-10 12-14 25-10 40 3 15 17 22 33 22 20 0 36-14 35-34-1-12-7-23-17-31Z" fill="#638b78" stroke="#466f61" stroke-width="1.5"/>
  <path d="M51 79c-10 9-14 19-11 30 4 12 22 18 35 11 11-6 15-21 5-34Z" fill="#eadbb9"/>
  <path d="M36 81C18 80 7 59 14 54c6-4 9 10 15 9-8-13-1-20 4-11l12 19Z" fill="#4c7868" stroke="#466f61" stroke-width="1.5"/>
  <path d="M89 80c18-1 29-22 23-27-6-4-10 10-15 9 8-13 1-20-4-11L81 70Z" fill="#4c7868" stroke="#466f61" stroke-width="1.5"/>
  <path d="M49 58 74 55l22 42" stroke="#af8760" stroke-width="5" fill="none"/>
  <path d="m77 97 22-4 3 20-22 4Z" fill="#bf9d70" stroke="#8b7857" stroke-width="1.5"/><path d="m77 97 22-4 1 8-22 4Z" fill="#d1b284"/><path d="m88 99 5-1v5l-5 1Z" fill="#e9cc82" stroke="#9d8454"/>
  <path d="M43 67c-10-6-15-18-10-31 3-10 13-17 26-16 17-3 32 5 35 18 6 15-2 27-14 32Z" fill="#668f7c" stroke="#466f61" stroke-width="1.5"/>
  <path d="M46 33c-13 5-13 28-1 35 12 9 37 5 43-9 5-10-5-28-17-29-11-3-16-1-25 3Z" fill="#f0e3c8"/>
  <path d="M43 23 43 12l12 9m1-1 7-12 5 13" fill="#668f7c" stroke="#466f61" stroke-width="1.5" stroke-linejoin="round"/>
  <path d="M48 52q5-7 10 0m14 0q5-7 10 0" fill="none" stroke="#304c42" stroke-width="2.5" stroke-linecap="round"/>
  <path d="m61 54 12 1-7 6Z" fill="#be8959"/><path d="M59 63q7 10 15-1" fill="#bd7e5c"/><path d="M62 65q4 2 8-1" stroke="#efc6a0" stroke-width="2" stroke-linecap="round"/>
  <path d="M40 69c13 9 30 9 44 1l-2 11c-16 6-28 4-41-2Z" fill="#bc684f" stroke="#9b5541" stroke-width="1"/>
  <path d="m41 76-19 12 10 3 2 8 21-19Z" fill="#c77455"/><path d="m29 87 10 8" stroke="#e9b687" stroke-width="2"/>
</svg>
