<svg xmlns="http://www.w3.org/2000/svg" width="128" height="144" viewBox="0 0 128 144">
  <title>落ち着いてノートを確かめる旅の相棒</title>
  <ellipse cx="66" cy="132" rx="33" ry="5" fill="#563B4520"/>
  <path d="M49 119v10l-11 3m40-13v10l11 3" stroke="#563B45" stroke-width="5" stroke-linecap="round" fill="none"/>
  <path d="m90 92 18 16-20 4Z" fill="#CB763B" stroke="#563B45" stroke-width="2.2" stroke-linejoin="round"/>
  <path d="M42 67c-10 12-14 25-10 40 3 15 17 22 33 22 20 0 36-14 35-34-1-12-7-23-17-31Z" fill="#E8A04B" stroke="#563B45" stroke-width="2.4"/>
  <path d="M51 79c-10 9-14 19-11 30 4 12 22 18 35 11 11-6 15-21 5-34Z" fill="#FFF4D6"/>
  <path d="M49 58 74 55l22 42" stroke="#986642" stroke-width="5" fill="none"/>
  <path d="m77 97 22-4 3 20-22 4Z" fill="#BD8B5B" stroke="#705044" stroke-width="1.8"/><path d="m77 97 22-4 1 8-22 4Z" fill="#DBAE7B"/><path d="m88 99 5-1v5l-5 1Z" fill="#FFE3A0" stroke="#705044"/>
  <g transform="rotate(6 64 56)"><path d="M43 67c-10-6-15-18-10-31 3-10 13-17 26-16 17-3 32 5 35 18 6 15-2 27-14 32Z" fill="#F0AD58" stroke="#563B45" stroke-width="2.4"/><path d="M46 33c-13 5-13 28-1 35 12 9 37 5 43-9 5-10-5-28-17-29-11-3-16-1-25 3Z" fill="#FFF4D6"/><path d="M43 23 43 12l12 9m1-1 7-12 5 13" fill="#F0AD58" stroke="#563B45" stroke-width="2.4" stroke-linejoin="round"/><ellipse cx="46" cy="59" rx="4.3" ry="2.7" fill="#ED9B82" opacity=".6"/><ellipse cx="86" cy="58" rx="4" ry="2.7" fill="#ED9B82" opacity=".6"/><ellipse cx="55" cy="53" rx="3.3" ry="4.2" fill="#563B45"/><circle cx="54" cy="51.6" r="1.1" fill="#FFFFFF"/><ellipse cx="80" cy="52" rx="3.3" ry="4.2" fill="#563B45"/><circle cx="79" cy="50.6" r="1.1" fill="#FFFFFF"/><path d="M49 45q4-2 8 0m18-1q4-2 8 0" fill="none" stroke="#84604D" stroke-width="1.8" stroke-linecap="round"/><path d="m62 55 12 1-7 6Z" fill="#CF753C" stroke="#704637" stroke-width="1.1" stroke-linejoin="round"/><path d="M62 65q5 3 10 0" fill="none" stroke="#563B45" stroke-width="2.2" stroke-linecap="round"/></g>
  <path d="M40 69c13 9 30 9 44 1l-2 11c-16 6-28 4-41-2Z" fill="#5F65C2" stroke="#454B90" stroke-width="1.7"/><path d="m41 76-10 20 10-2 6 6 8-20Z" fill="#7178D4" stroke="#454B90" stroke-width="1.5" stroke-linejoin="round"/>
  <path d="m40 91 20-3 17 6-4 23-16-6-18 3Z" fill="#FFF4D6" stroke="#8B6D5A" stroke-width="1.8"/><path d="m60 89-3 21M43 99l11-2m-11 7 10-2m12-5 7 2m-8 3 7 2" stroke="#8E8AB3" stroke-width="1.5"/>
  <path d="M36 89c-6 1-9 9-5 15 4 5 10 2 11-2m40-8c6-2 11 3 7 9-3 5-10 3-11 0" fill="#E8A04B" stroke="#563B45" stroke-width="2.4"/>
</svg>
