<svg xmlns="http://www.w3.org/2000/svg" width="800" height="650" viewBox="0 0 800 650" preserveAspectRatio="none"><title>パリの名所の位置関係。セーヌ川の北西岸にトロカデロ、南東岸にエッフェル塔とシャン・ド・マルス</title><defs><pattern id="grain" width="27" height="31" patternUnits="userSpaceOnUse"><circle cx="5" cy="8" r=".6" fill="#607d65" opacity=".1"/></pattern><pattern id="water" width="74" height="37" patternUnits="userSpaceOnUse"><path d="M5 9h17m21 15h21" stroke="#d9eee0" stroke-width="2" stroke-linecap="round" opacity=".6"/></pattern><g id="tree"><ellipse cy="9" rx="13" ry="5" fill="#7a896544"/><path d="M0-4v14" stroke="#8b8060" stroke-width="2.5"/><path d="M-13-6c-5-12 4-19 12-18 7-7 20 4 16 13 7 12-19 22-28 5Z" fill="#7b9d7c"/><path d="m-7-13 4-5" stroke="#adc1a0" stroke-width="2" stroke-linecap="round"/></g><g id="building"><path d="m-18-8 30-8 12 9-29 9Z" fill="#8b9b8733"/><path d="M-18-35 11-43v34l-29 8Z" fill="#e5cba3"/><path d="m11-43 12 10v32L11-9Z" fill="#c0ad8e"/><path d="m-23-35 9-15 28-9 14 27-17-9Z" fill="#6e8580"/><path d="M-10-29v8m11-12v8M-10-13v7M17-29v9" stroke="#779085" stroke-width="4"/></g></defs><path fill="#e7e6ce" d="M0 0h800v650H0Z"/><path d="M-80 610C110 462 240 438 369 293S593 214 880 55" fill="none" stroke="#bcd0bc" stroke-width="75"/><path d="M-80 610C110 462 240 438 369 293S593 214 880 55" fill="none" stroke="#87b9b2" stroke-width="50"/><path d="M-80 610C110 462 240 438 369 293S593 214 880 55" fill="none" stroke="url(#water)" stroke-width="48"/><path d="M-53 566C98 447 211 420 349 277S583 193 859 35M-66 646C129 491 272 463 391 315S620 239 891 80" fill="none" stroke="#f6ebc9" stroke-width="13"/>
<path d="M-15 153 194 155 314 38M221 139 221-10M32-10l163 141M-18 278l225-108M287 146l168-85M431 421l-70 229M508 372l292 140M584 446l151-167M678 567l120 51" fill="none" stroke="#f8efda" stroke-width="20"/><path d="M-15 153 194 155 314 38M221 139 221-10M32-10l163 141M431 421l-70 229M508 372l292 140" fill="none" stroke="#d9d4b5" stroke-width="1" stroke-dasharray="4 7"/>
<path d="m185 166 53-23 119 98-25 29Z" fill="#b5c49a"/><path d="m215 168 14-8 103 87-14 8Z" fill="#e2d6ac"/><path d="m237 185 9-7 61 53-9 7Z" fill="#87b7a5"/><path d="m249 190 3-3 45 39-3 3Z" fill="#d7e7c9"/>
<path d="M217 121C177 75 93 57 80 86l16 30c15-16 70-3 98 22m34-17c8-61 57-120 88-110l20 30c-35-11-67 33-83 92" fill="#e7d1a7" stroke="#bdad8a" stroke-width="2"/><path d="M211 121c-45-37-102-41-119-29m150 32c6-45 47-91 78-95" fill="none" stroke="#839486" stroke-width="13"/><path d="M209 131c-38-31-84-33-104-22m143 26c10-40 44-72 73-75" fill="none" stroke="#cbb791" stroke-width="3"/>
<path d="m361 255 23-19 76 83-23 18Z" fill="#ded0ac" stroke="#a29777" stroke-width="2"/><path d="m366 251 23-19 76 83m-23 22-76-83" fill="none" stroke="#f5e7c4" stroke-width="4"/><path d="m374 259 22-18m-10 31 23-20m-12 33 24-21m-11 34 23-21m-11 34 23-22" stroke="#b6a989" stroke-width="2"/>
<path d="m417 385 88-58 221 253-112 69Z" fill="#b9cca1"/><path d="m441 384 21-14 228 256-24 14Z" fill="#e7deb7"/><path d="m479 359 19-11 220 254-20 12Z" fill="#e7deb7"/><path d="m455 390 30-19 50 56-30 21Zm61 70 30-20 50 57-31 20Zm61 70 31-20 48 55-32 19Z" fill="#92b08a"/>
<g stroke="#789975" stroke-width="8" stroke-linecap="round"><path d="m423 401 167 196m-67-248 188 208"/></g>
<g transform="translate(464 353)"><ellipse cy="10" rx="35" ry="14" fill="#6f866844"/><path d="M-5-91 4-91 9-47 27 4H-27l19-51Z" fill="#927958" stroke="#695f4a" stroke-width="2"/><path d="M-20-15h40m-32-31h24m-20-25h16M0-101v12" stroke="#5e634e" stroke-width="3"/><path d="M-17 4q17-29 34 0" fill="#c3d2ab" stroke="#635e48" stroke-width="2"/><path d="m-5-79 11 26-18 18 27 17m-11-61-11 26 18 18-27 17" fill="none" stroke="#d9c397" stroke-width="1.5"/></g>
<use href="#building" x="73" y="206"/><use href="#building" x="117" y="235"/><use href="#building" x="42" y="351"/><use href="#building" x="146" y="53"/><use href="#building" x="356" y="119"/><use href="#building" x="408" y="73"/><use href="#building" x="479" y="120"/><use href="#building" x="535" y="81"/><use href="#building" x="585" y="124"/>
<use href="#building" x="221" y="575"/><use href="#building" x="287" y="612"/><use href="#building" x="330" y="546"/><use href="#building" x="576" y="331"/><use href="#building" x="640" y="381"/><use href="#building" x="710" y="411"/><use href="#building" x="758" y="339"/>
<use href="#tree" x="164" y="145"/><use href="#tree" x="270" y="186"/><use href="#tree" x="310" y="219"/><use href="#tree" x="328" y="270"/><use href="#tree" x="200" y="226"/><use href="#tree" x="440" y="181"/><use href="#tree" x="517" y="153"/>
<use href="#tree" x="392" y="387"/><use href="#tree" x="428" y="466"/><use href="#tree" x="476" y="520"/><use href="#tree" x="527" y="582"/><use href="#tree" x="553" y="391"/><use href="#tree" x="606" y="448"/><use href="#tree" x="659" y="508"/>
<path d="m677 148 38-15-17 21Z" fill="#e5d3b0"/><path d="m690 145 3-17 16 9Z" fill="#c28c65"/><text x="101" y="500" transform="rotate(-33 101 500)" font-family="Georgia,serif" font-size="13" letter-spacing="3" fill="#588d85">LA SEINE</text><path fill="url(#grain)" d="M0 0h800v650H0Z"/><g transform="translate(739 49)"><path d="m0-16-4 16 4-3 4 3Z" fill="#668069"/><path d="M0 0v13" stroke="#668069"/><text y="-23" text-anchor="middle" font-size="11" font-family="Georgia,serif" fill="#668069">N</text></g></svg>