<svg xmlns="http://www.w3.org/2000/svg" width="320" height="220" viewBox="0 0 320 220">
  <title>自転車の前カゴにちょこんと入り、丸い手を縁に添える相棒</title>
  <defs>
    <linearGradient id="feather-gold" x1="0" y1="0" x2="0.25" y2="1">
      <stop stop-color="#FFD17A" />
      <stop offset=".48" stop-color="#F3B452" />
      <stop offset="1" stop-color="#E99A43" />
    </linearGradient>
    <linearGradient id="face-cream" x1="0" y1="0" x2="0" y2="1">
      <stop stop-color="#FFFAE9" />
      <stop offset="1" stop-color="#FFEDC7" />
    </linearGradient>
    <linearGradient id="scarf-blue" x1="0" y1="0" x2="1" y2="1">
      <stop stop-color="#8586DC" />
      <stop offset="1" stop-color="#5B58AD" />
    </linearGradient>
    <linearGradient id="eye-brown" x1="0" y1="0" x2="0" y2="1">
      <stop stop-color="#49313B" />
      <stop offset="1" stop-color="#744D46" />
    </linearGradient>
    <linearGradient id="basket" x2="0" y2="1">
      <stop stop-color="#f3ce77" />
      <stop offset="1" stop-color="#cc9143" />
    </linearGradient>
  </defs>
  <g id="basket-passenger-body" stroke="#593D45" stroke-linejoin="round" stroke-linecap="round">
    <path d="M224 80q23-12 45 0c10 11 9 29-1 35-12 8-31 8-43-1-9-7-10-23-1-34Z" fill="url(#feather-gold)" stroke-width="2.8" />
    <ellipse cx="247" cy="101" rx="17" ry="14" fill="#FFF4D6" stroke="none" />
    <path d="M223 83q24 10 48-1l-2 11q-21 9-44 0Z" fill="url(#scarf-blue)" stroke="#49477F" stroke-width="2.1" />
    <path d="M225 88q-6 7-13 9l7 2 1 6q10-5 14-13Z" fill="#7877D6" stroke="#49477F" stroke-width="2" />
    <path d="M225 86q6-3 10 2l-2 8q-7 2-10-3Z" fill="#9190E3" stroke="#49477F" stroke-width="2" />
    <path d="m228 88 3 3" fill="none" stroke="#D8D6FF" stroke-width="1.7" />
  </g>
  <g transform="translate(181 -2) scale(1.04)">
    <g id="buddy-head">
      <path d="M48 23c-7-3-9-9-5-13 5-5 14-2 14 4 0 4-4 6-8 3 1 6 12 3 17 3 23-2 40 14 40 34 0 21-18 33-41 33-24 1-44-13-43-34 0-16 10-26 26-30Z" fill="url(#feather-gold)" stroke="#593D45" stroke-width="2.8" stroke-linejoin="round" />
      <path d="M32 41c6-10 18-12 27-5l5 4 5-4c9-7 22-5 27 6 7 15-2 32-17 37-10 4-21 4-31 0-16-5-25-24-16-38Z" fill="url(#face-cream)" />
      <path d="M68 26c11-1 20 5 25 12" fill="none" stroke="#FFE5AE" stroke-width="3.5" stroke-linecap="round" opacity=".8" />
      <ellipse cx="36.5" cy="65" rx="7.2" ry="4.4" fill="#EFA184" opacity=".7" />
      <ellipse cx="92" cy="65" rx="7.2" ry="4.4" fill="#EFA184" opacity=".7" />
      <path d="M41 41q5-3 11-1m23 0q6-2 11 1" fill="none" stroke="#A57953" stroke-width="1.8" stroke-linecap="round" />
      <g fill="url(#eye-brown)">
        <ellipse cx="47" cy="53" rx="6.3" ry="8.6" />
        <ellipse cx="81" cy="53" rx="6.3" ry="8.6" />
      </g>
      <g fill="#FFFFFF">
        <circle cx="45" cy="50" r="2.15" />
        <circle cx="49.4" cy="56.4" r="1.15" />
        <circle cx="79" cy="50" r="2.15" />
        <circle cx="83.4" cy="56.4" r="1.15" />
      </g>
      <path d="M59 62q5-4 10 0c2 2-1 4-4 6h-2c-3-2-6-4-4-6Z" fill="#EE9775" stroke="#A65F4F" stroke-width="1.4" stroke-linejoin="round" />
      <path d="M62 62q2-1 4 0" fill="none" stroke="#FFD1A9" stroke-width="1.2" stroke-linecap="round" />
      <path d="M57 72q7 6 14 0" fill="none" stroke="#714A46" stroke-width="2.2" stroke-linecap="round" />
    </g>
  </g>
  <g id="bicycle-basket-front" stroke-linejoin="round" stroke-linecap="round">
    <path d="M211 90q38 10 78-1l-8 37q-31 13-61 1Z" fill="url(#basket)" stroke="#875531" stroke-width="2.6" />
    <path d="m221 102q29 9 58-1m-55 13q27 8 52-1m-45-17 4 32m10-30 1 32m14-32-1 32m14-35-4 32" fill="none" stroke="#fff1c5" stroke-width="2.1" opacity=".85" />
    <path d="M211 90q38 10 78-1" fill="none" stroke="#875531" stroke-width="7" />
    <path d="M211 90q38 10 78-1" fill="none" stroke="#f8d994" stroke-width="4" />
    <circle cx="250" cy="114" r="7" fill="#fff0c8" stroke="#a16f3e" stroke-width="1.6" />
    <path d="m250 109 1.5 3.5 3.5 1.5-3.5 1.5-1.5 3.5-1.5-3.5-3.5-1.5 3.5-1.5Z" fill="#6766c4" />
  </g>
  <g id="basket-passenger-paws" stroke="#593D45" stroke-linejoin="round" stroke-linecap="round">
    <path d="M216 88c4-4 11-3 13 2 2 4 0 11-5 12-5 1-10-3-10-7 0-3 0-5 2-7Z" fill="url(#feather-gold)" stroke-width="2.5" />
    <path d="M273 87c4-3 10-2 13 2 3 5 0 12-5 13-5 0-10-4-10-8 0-3 0-5 2-7Z" fill="url(#feather-gold)" stroke-width="2.5" />
    <path d="m220 96 1 3m4-4 1 3m51-3 1 3m4-3 1 3" fill="none" stroke="#CC8C4A" stroke-width="1.4" />
    <path d="m219 91 5-1m52 0h5" fill="none" stroke="#FFE0A0" stroke-width="2" />
  </g>
</svg>
