<svg xmlns="http://www.w3.org/2000/svg" width="320" height="220" viewBox="0 0 320 220">
  <title>両手でハンドルを握ったまま、正解を笑顔で喜ぶ相棒</title>
  <defs>
    <linearGradient id="feather-gold" x1="0" y1="0" x2="0.25" y2="1">
      <stop stop-color="#FFD17A" />
      <stop offset=".48" stop-color="#F3B452" />
      <stop offset="1" stop-color="#E99A43" />
    </linearGradient>
    <linearGradient id="face-cream" x1="0" y1="0" x2="0" y2="1">
      <stop stop-color="#FFFAE9" />
      <stop offset="1" stop-color="#FFEDC7" />
    </linearGradient>
    <linearGradient id="scarf-blue" x1="0" y1="0" x2="1" y2="1">
      <stop stop-color="#8586DC" />
      <stop offset="1" stop-color="#5B58AD" />
    </linearGradient>
    <linearGradient id="eye-brown" x1="0" y1="0" x2="0" y2="1">
      <stop stop-color="#49313B" />
      <stop offset="1" stop-color="#744D46" />
    </linearGradient>
  </defs>
  <g stroke="#593D45" stroke-linejoin="round" stroke-linecap="round">
    <path d="M124 97Q106 112 112 124L127 141" fill="none" stroke="#593D45" stroke-width="15" />
    <path d="M124 97Q106 112 112 124L127 141" fill="none" stroke="#CE853C" stroke-width="10" />
    <path d="M122 138q7-3 13 3l6 3q1 4-6 4h-13q-5-4 0-10Z" fill="#E7A35D" stroke-width="2.6" />
    <path d="M127 85q-15 1-27 12 13 9 27 6l11-8" fill="#DA8C3D" stroke-width="2.6" />
    <path d="M142 63q-16 11-39 4l7 10-8 6q22 1 41-11" fill="#7877D6" stroke="#4D4785" stroke-width="2.4" />
    <path d="M113 74q12 3 23-2" fill="none" stroke="#D8D6FF" stroke-width="2.4" />
    <path d="M136 57q22-4 29 13c7 15-5 33-23 36-13 2-26-1-27-12 0-13 11-26 21-37Z" fill="#F0AB4C" stroke-width="3" />
    <path d="M145 67c15-1 19 11 13 21-6 11-16 14-26 12-6-2-9-7-5-14Z" fill="#FFF4D6" stroke="none" />
    <path d="M126 99q17 2 25-8" fill="none" stroke="#DF963F" stroke-width="3" />
    <path d="M138 101q13 2 25 21 5 7 3 18l-4 28" fill="none" stroke="#593D45" stroke-width="17" />
    <path d="M138 101q13 2 25 21 5 7 3 18l-4 28" fill="none" stroke="#F2B34F" stroke-width="11.5" />
    <path d="M145 110q10 4 16 15" fill="none" stroke="#FFD88C" stroke-width="3.5" />
    <path d="M156 166q7-3 13 1l8 3q5 4 0 6h-22q-5-4 1-10Z" fill="#F5BD71" stroke-width="2.7" />
    <path d="M161 168h7" stroke="#FFF1C2" stroke-width="2" />
    <path d="M132 64q-9 14-10 26" fill="none" stroke="#865549" stroke-width="4.5" />
    <path d="m109 77 20 3-3 23-21-4Z" fill="#BA7853" stroke-width="2.5" />
    <path d="m109 77 20 3-2 9-20-3Z" fill="#D99A67" stroke-width="2" />
    <circle cx="117" cy="89" r="4.6" fill="#FFE4A0" stroke-width="1.5" />
    <path d="m117 86 1 2 2 1-2 1-1 2-1-2-2-1 2-1Z" fill="#9C654C" stroke="none" />
    <path d="M151 66q10 7 18 7l14-1" fill="none" stroke="#593D45" stroke-width="12" />
    <path d="M151 66q10 7 18 7l14-1" fill="none" stroke="#D99840" stroke-width="7" />
    <ellipse cx="184" cy="72" rx="6" ry="4.8" fill="#F5B959" stroke-width="2.2" />
    <path d="M152 73q12 13 23 10l20-10" fill="none" stroke="#593D45" stroke-width="14" />
    <path d="M152 73q12 13 23 10l20-10" fill="none" stroke="#F3B452" stroke-width="9" />
    <path d="M163 79q10 4 18-1" fill="none" stroke="#FFDC94" stroke-width="2.7" />
    <ellipse cx="197" cy="71.8" rx="6.4" ry="5" fill="#F7BE62" stroke-width="2.3" />
    <path d="m197 70 1.2 4" fill="none" stroke="#BA7B3C" stroke-width="1.5" />
    <path d="M131 60q14 8 29 1l-2 9q-15 6-28-1Z" fill="#6766C4" stroke="#4D4785" stroke-width="2.4" />
    <path d="M131 64q6-3 9 2l-3 7-7-3Z" fill="#9190E3" stroke="#4D4785" stroke-width="2" />
  </g>
  <g transform="translate(98 -6) scale(.86)">
    <g id="buddy-head">
      <path d="M48 23c-7-3-9-9-5-13 5-5 14-2 14 4 0 4-4 6-8 3 1 6 12 3 17 3 23-2 40 14 40 34 0 21-18 33-41 33-24 1-44-13-43-34 0-16 10-26 26-30Z" fill="url(#feather-gold)" stroke="#593D45" stroke-width="2.8" stroke-linejoin="round" />
      <path d="M32 41c6-10 18-12 27-5l5 4 5-4c9-7 22-5 27 6 7 15-2 32-17 37-10 4-21 4-31 0-16-5-25-24-16-38Z" fill="url(#face-cream)" />
      <path d="M68 26c11-1 20 5 25 12" fill="none" stroke="#FFE5AE" stroke-width="3.5" stroke-linecap="round" opacity=".8" />
      <ellipse cx="36.5" cy="65" rx="7.2" ry="4.4" fill="#EFA184" opacity=".7" />
      <ellipse cx="92" cy="65" rx="7.2" ry="4.4" fill="#EFA184" opacity=".7" />
      <path d="M40 54q7-13 14 0m20 0q7-13 14 0" fill="none" stroke="#593D45" stroke-width="3.6" stroke-linecap="round" />
      <path d="M37 58h5m44 0h5" fill="none" stroke="#D99070" stroke-width="1.5" stroke-linecap="round" />
      <path d="M59 62q5-4 10 0c2 2-1 4-4 6h-2c-3-2-6-4-4-6Z" fill="#EE9775" stroke="#A65F4F" stroke-width="1.4" stroke-linejoin="round" />
      <path d="M62 62q2-1 4 0" fill="none" stroke="#FFD1A9" stroke-width="1.2" stroke-linecap="round" />
      <path d="M55 70q9 3 18 0c0 10-18 13-18 0Z" fill="#67414A" />
      <path d="M60 76q5-3 9 0" fill="none" stroke="#F5AD97" stroke-width="2.8" stroke-linecap="round" />
    </g>
  </g>
</svg>
